# xmcd
#
# Track frame offsets:
#	150
#	18063
#	39139
#	56738
#	78770
#	97344
#	116222
#	135637
#	155136
#	174548
#	192549
#	212706
#	234991
#	251547
#	270343
#
# Disc length: 3991
#
# Revision: 3
# Processed by: cddbd v1.5.1PL0 Copyright (c) Steve Scherf et al.
# Submitted via: FreeRIP 2.60 
# Normalized: r2:DSETVAR1,TDELIM( - )
#
DISCID=c90f950f
DTITLE=Various Artist - Soul Kitchen - Disk1
DYEAR=2000
DGENRE=R&B
TTITLE0=Lauryn Hill - Doo Wop (That thing)
TTITLE1=Eric Benet - True to myself
TTITLE2=Faith Evans feat. Puff Daddy - All night long
TTITLE3=Brandy - I wanna be down
TTITLE4=Next - Too close
TTITLE5=Total - Trippin' (Puff Daddy remix)
TTITLE6=112 feat. Mase - Love me
TTITLE7=Deborah Cox - Nobody's supposed to be here
TTITLE8=N'dea Davneport - Bring it on
TTITLE9=Another level - Be alone no more
TTITLE10=Aretha Franklin - A rose is still a rose
TTITLE11=Keith Sweat - Come and get with me
TTITLE12=Usher - You make me wanna
TTITLE13=Monica - First night (Jermain Dupri remix)
TTITLE14=Barry White ft. Lisa Stansfield - The longer we make love
EXTD=Trading full MP3 albums\nmagus3042@yahoo.com
EXTT0=
EXTT1=
EXTT2=
EXTT3=
EXTT4=
EXTT5=
EXTT6=
EXTT7=
EXTT8=
EXTT9=
EXTT10=
EXTT11=
EXTT12=
EXTT13=
EXTT14=
PLAYORDER=
